<?xml version="1.0" standalone="no"?>
<!DOCTYPE svg PUBLIC "-//W3C//DTD SVG 20010904//EN"
 "http://www.w3.org/TR/2001/REC-SVG-20010904/DTD/svg10.dtd">
<svg version="1.0" xmlns="http://www.w3.org/2000/svg"
 width="512.000000pt" height="512.000000pt" viewBox="0 0 512.000000 512.000000"
 preserveAspectRatio="xMidYMid meet">
<metadata>
Created by potrace 1.11, written by Peter Selinger 2001-2013
</metadata>
<g transform="translate(0.000000,512.000000) scale(0.100000,-0.100000)"
fill="#000000" stroke="none">
<path d="M2325 5109 c-679 -65 -1307 -399 -1742 -926 -394 -478 -603 -1094
-579 -1708 31 -836 450 -1585 1148 -2052 427 -285 974 -439 1493 -419 836 31
1585 450 2052 1148 285 427 439 974 419 1493 -31 836 -450 1585 -1148 2052
-467 312 -1078 465 -1643 412z m640 -2549 l0 -1275 -380 0 -380 0 -3 1255 c-1
690 0 1265 3 1278 l5 22 378 -2 377 -3 0 -1275z m-1141 664 c14 -6 16 -71 16
-639 0 -568 -2 -633 -16 -639 -9 -3 -175 -6 -369 -6 -308 0 -356 2 -369 16
-14 14 -16 85 -16 629 0 544 2 615 16 629 13 14 61 16 369 16 194 0 360 -3
369 -6z m2257 -4 c18 -10 19 -28 19 -630 0 -549 -2 -620 -16 -634 -13 -14 -61
-16 -369 -16 -194 0 -360 3 -369 6 -14 6 -16 71 -16 639 0 497 3 634 13 638
25 11 718 7 738 -3z"/>
</g>
</svg>
